<?xml version="1.0" standalone="no"?>
<!DOCTYPE svg PUBLIC "-//W3C//DTD SVG 20010904//EN"
 "http://www.w3.org/TR/2001/REC-SVG-20010904/DTD/svg10.dtd">
<svg version="1.0" xmlns="http://www.w3.org/2000/svg"
 width="496.000000pt" height="251.000000pt" viewBox="0 0 496.000000 251.000000"
 preserveAspectRatio="xMidYMid meet">
<metadata>
Created by potrace 1.16, written by Peter Selinger 2001-2019
</metadata>
<g transform="translate(0.000000,251.000000) scale(0.100000,-0.100000)"
fill="#000000" stroke="none">
<path d="M1251 2346 l-123 -166 -72 60 c-39 33 -91 77 -116 99 -30 28 -47 37
-51 28 -3 -6 -21 -73 -40 -148 l-33 -136 -206 54 c-113 29 -218 56 -235 60
-29 6 -29 6 -14 -18 9 -13 72 -109 140 -214 l123 -190 1 -65 c1 -36 7 -75 15
-87 13 -20 11 -25 -33 -71 -55 -59 -55 -58 18 -202 71 -141 73 -219 8 -308
-27 -36 -26 -36 24 -92 l22 -25 -29 -46 -28 -47 31 -29 c26 -24 214 -181 225
-189 2 -1 -4 -17 -13 -34 -9 -18 -13 -36 -8 -40 4 -5 85 -65 178 -134 94 -70
206 -154 249 -189 138 -108 104 -112 300 34 94 70 197 147 228 171 32 24 67
50 79 58 81 58 90 72 67 111 -14 23 -25 10 131 144 46 39 90 75 98 82 14 11
12 17 -12 58 l-27 47 31 38 c17 21 31 41 31 44 0 3 -15 29 -32 58 -28 46 -33
62 -33 118 0 59 6 76 58 181 31 64 57 122 57 130 0 7 -20 34 -45 59 l-45 45
20 52 c15 41 17 58 10 79 -12 30 0 51 178 322 52 79 91 146 88 149 -3 3 -49
-6 -103 -21 -320 -87 -348 -93 -354 -82 -7 11 -38 133 -45 171 -3 21 -27 108
-30 113 -2 2 -55 -41 -119 -97 l-117 -100 -122 162 c-119 158 -124 162 -162
165 l-40 3 -123 -165z m329 -143 c88 -117 163 -213 167 -213 3 0 3 10 0 23
-21 90 -23 84 34 101 29 8 56 13 60 10 5 -2 36 -58 70 -124 34 -66 65 -120 69
-120 4 0 12 25 19 55 7 30 16 57 21 60 18 11 113 18 109 9 -2 -6 -29 -54 -59
-107 l-55 -98 -40 5 -40 5 37 -15 c33 -15 47 -36 48 -71 0 -7 -35 4 -85 27
l-84 39 -103 -48 c-57 -27 -156 -74 -220 -104 l-117 -56 -216 83 -215 83 -56
-39 c-30 -22 -59 -50 -64 -63 -10 -27 -92 -56 -125 -45 -23 8 -55 64 -55 97 0
33 23 49 102 73 102 30 101 30 96 35 -2 3 -31 0 -64 -5 -32 -6 -67 -10 -76
-10 -18 0 -205 267 -194 277 2 3 62 -10 133 -28 l127 -34 19 -63 c11 -35 21
-61 23 -59 2 2 24 77 48 166 24 89 46 165 49 168 3 3 38 -21 76 -53 75 -61 78
-68 62 -137 -5 -21 -5 -37 -1 -35 8 3 195 247 284 370 22 31 44 56 48 55 3 -1
79 -98 168 -214z m-524 -552 c39 -18 77 -47 108 -82 48 -54 48 -54 42 -21 -3
17 -2 32 3 32 5 0 52 -20 105 -45 l97 -45 99 45 c55 25 104 45 110 45 6 0 6
-9 0 -26 -16 -42 -12 -41 48 19 52 52 144 107 175 107 7 0 29 -15 49 -33 26
-23 41 -47 51 -85 8 -28 12 -54 7 -57 -4 -2 -23 -2 -43 2 -32 5 -35 8 -26 25
6 11 9 21 7 23 -2 2 -75 -27 -163 -65 -129 -54 -165 -66 -184 -58 -38 14 -61
-14 -61 -74 0 -42 -4 -53 -32 -78 l-32 -30 -30 24 c-24 18 -33 35 -41 77 -14
77 -25 92 -56 80 -21 -8 -53 2 -189 60 -90 38 -166 67 -168 64 -3 -2 1 -11 8
-20 16 -19 14 -21 -32 -29 -44 -8 -44 -6 -23 69 12 41 24 58 53 78 20 14 42
26 47 26 6 1 37 -12 71 -28z m-13 -273 c101 -44 101 -44 81 -93 -6 -16 -5 -18
7 -9 81 62 131 94 140 89 6 -4 7 -11 1 -18 -6 -7 -13 -31 -17 -54 -6 -40 -9
-43 -58 -57 -91 -26 -105 -28 -111 -17 -4 6 -11 11 -15 11 -12 0 -30 -67 -24
-92 3 -15 2 -19 -4 -11 -5 6 -71 39 -148 71 -173 74 -182 88 -115 165 63 71
125 74 263 15z m929 34 c29 -5 48 -19 78 -55 59 -73 48 -87 -124 -159 -135
-58 -162 -67 -151 -48 3 5 0 28 -6 51 -11 36 -14 39 -25 24 -12 -17 -17 -17
-81 0 -37 10 -73 24 -79 32 -7 8 -15 34 -19 59 l-7 46 -22 -21 c-12 -12 -26
-21 -30 -21 -4 0 6 12 23 26 34 28 32 29 113 -33 31 -24 59 -43 62 -43 4 0 -1
14 -9 31 -9 17 -15 32 -13 33 2 2 46 21 98 43 97 42 126 47 192 35z m-595
-276 l36 -25 38 26 c21 14 46 22 56 19 10 -2 64 -19 119 -36 l102 -31 11 -44
c6 -24 15 -56 21 -70 10 -27 11 -27 43 35 32 63 32 63 122 101 l90 37 15 -56
c9 -32 22 -68 29 -80 15 -28 8 -40 -14 -22 -26 22 -27 5 -4 -74 12 -42 20 -77
18 -79 -2 -2 -35 -30 -74 -62 -38 -33 -77 -65 -86 -73 -15 -11 -22 -9 -53 18
-42 37 -43 34 -20 -75 9 -42 12 -81 7 -85 -63 -56 -418 -310 -428 -306 -8 3
-104 73 -215 156 -224 168 -211 150 -185 270 7 36 12 66 10 68 -1 2 -19 -11
-39 -28 l-36 -32 -90 77 c-49 43 -90 78 -90 79 0 0 11 36 25 79 25 83 27 80
-22 60 -6 -2 -1 21 13 54 13 32 24 71 24 87 0 19 4 27 14 23 7 -3 52 -22 99
-43 l86 -37 27 -61 26 -61 25 72 25 73 106 34 c59 19 113 35 120 35 7 1 29
-10 49 -23z"/>
<path d="M1432 2078 c55 -85 118 -189 118 -196 0 -4 -31 -31 -70 -60 l-69 -52
-87 40 c-48 22 -89 39 -90 37 -2 -2 37 -32 87 -67 l91 -63 81 36 c45 20 108
48 141 63 l58 26 -128 129 c-122 123 -164 156 -132 107z"/>
<path d="M1303 978 l-93 -21 0 -82 c0 -45 3 -85 6 -88 4 -4 19 20 34 52 l28
58 73 12 c60 10 85 10 134 -1 59 -14 60 -15 89 -71 16 -32 30 -56 31 -55 1 2
5 42 9 89 l7 85 -104 22 c-57 12 -108 22 -113 21 -5 0 -51 -10 -101 -21z"/>
<path d="M3153 1833 c-7 -2 -13 -12 -13 -21 0 -8 -14 -59 -31 -113 l-31 -97
37 -113 c21 -63 40 -120 43 -127 3 -10 -3 -13 -24 -10 -26 3 -30 10 -55 86
-39 123 -49 125 -49 9 0 -97 0 -97 -25 -97 -14 0 -25 6 -25 13 0 6 0 114 -1
240 0 219 0 227 -19 227 -19 0 -20 -8 -20 -255 l0 -255 30 0 c19 0 34 -7 42
-20 17 -26 65 -26 88 -1 16 20 17 20 30 0 19 -25 117 -28 127 -3 4 10 -1 20
-11 26 -13 7 -16 17 -12 34 4 16 2 24 -6 24 -19 0 -50 91 -36 107 8 10 6 13
-7 13 -14 0 -16 6 -11 31 5 25 3 30 -9 26 -19 -8 -29 28 -17 61 6 15 13 39 16
55 4 16 13 27 24 27 14 0 15 2 3 9 -12 8 -13 14 -3 36 7 14 17 23 22 20 6 -4
10 5 10 20 0 16 -4 24 -11 20 -6 -4 -13 2 -16 14 -5 21 -16 24 -40 14z"/>
<path d="M3695 1834 c-6 -2 -9 -91 -7 -244 l3 -240 -40 0 c-43 0 -51 10 -51
68 0 56 -22 206 -31 217 -5 5 -9 -55 -9 -138 l0 -147 -25 0 -26 0 3 240 c3
223 2 240 -14 240 -17 0 -18 -18 -18 -245 0 -211 2 -245 15 -245 8 0 15 -4 15
-8 0 -5 12 -14 26 -20 14 -7 22 -17 19 -22 -4 -6 8 -10 29 -10 25 0 36 4 36
15 0 8 9 15 20 15 11 0 20 -7 20 -15 0 -11 12 -15 45 -15 33 0 45 4 45 15 0 8
7 15 15 15 13 0 15 33 15 235 0 195 -2 235 -14 235 -8 0 -19 14 -25 30 -9 28
-22 34 -46 24z"/>
<path d="M4007 1785 c20 -68 12 -105 -22 -105 -23 0 -25 4 -25 44 0 47 -19 72
-45 62 -13 -5 -15 -33 -13 -198 l3 -193 25 0 c24 0 25 3 28 69 2 55 0 70 -14
81 -20 14 -13 45 11 45 12 0 14 4 5 19 -5 11 -10 24 -10 30 0 16 27 13 34 -4
3 -8 12 -12 20 -9 8 3 17 1 21 -5 10 -16 42 -13 49 5 11 28 6 101 -8 135 -8
19 -28 44 -44 56 l-30 22 15 -54z"/>
<path d="M3280 1588 l0 -243 35 -23 c19 -12 35 -27 35 -32 0 -6 15 -10 34 -10
l35 0 1 252 c1 246 0 252 -21 275 -13 12 -27 23 -33 23 -8 0 -11 -75 -11 -237
l0 -238 -28 -3 -28 -3 3 240 c2 188 0 241 -9 241 -10 0 -13 -55 -13 -242z"/>
<path d="M4015 1473 l0 -118 -45 -2 c-25 -2 -56 -3 -70 -4 -13 0 -26 4 -28 10
-4 12 -32 15 -32 4 0 -5 18 -21 40 -37 22 -17 40 -33 40 -38 0 -4 16 -8 35 -8
24 0 35 5 35 15 0 8 7 15 15 15 8 0 15 -7 15 -15 0 -20 46 -20 54 1 3 9 6 68
6 133 0 110 -1 119 -23 139 -13 12 -27 22 -33 22 -5 0 -9 -51 -9 -117z"/>
<path d="M4219 1193 c0 -5 0 -101 1 -214 1 -137 -3 -214 -11 -231 -20 -46 -72
-59 -131 -33 -20 8 -24 -10 -9 -33 10 -17 72 -31 134 -32 45 0 50 2 60 30 7
18 17 28 24 26 10 -4 13 42 13 223 l0 228 -25 13 c-14 7 -25 17 -25 22 0 10
-30 11 -31 1z"/>
<path d="M3263 1168 c2 -19 -4 -24 -30 -26 l-33 -3 0 -85 c0 -60 4 -84 13 -85
6 -1 17 -2 22 -4 6 -1 16 -3 23 -3 27 -4 11 -31 -20 -34 l-33 -3 0 -90 0 -90
33 -3 c25 -3 32 -8 30 -20 -3 -14 -15 -17 -66 -16 -34 0 -62 -2 -62 -6 0 -3
13 -16 30 -28 23 -17 43 -22 95 -22 63 0 65 1 65 26 0 14 -11 39 -25 56 -16
19 -26 43 -27 69 -1 21 -2 47 -2 56 -1 12 7 18 24 18 23 0 25 3 23 44 -1 31
-8 48 -23 58 -14 10 -20 25 -20 54 0 34 3 39 23 39 33 0 37 63 6 96 -29 30
-49 31 -46 2z"/>
<path d="M3688 957 c3 -202 1 -235 -12 -246 -13 -11 -19 -11 -32 0 -14 12 -16
31 -12 134 3 66 2 131 -2 145 -7 26 -16 -18 -40 -193 -5 -44 -13 -83 -16 -88
-8 -13 -42 -11 -50 3 -7 11 -33 209 -34 256 0 12 -4 22 -10 22 -5 0 -11 -59
-12 -142 l-3 -143 -27 3 c-30 3 -39 -15 -13 -24 8 -4 15 -12 15 -20 0 -11 22
-14 104 -14 90 0 105 2 108 17 3 15 4 15 20 -1 11 -10 29 -16 45 -14 l28 3 3
247 2 246 -29 21 c-16 12 -31 21 -33 21 -1 0 -2 -105 0 -233z"/>
<path d="M3888 948 c-3 -248 -7 -268 -42 -233 -15 15 -16 14 -16 -14 0 -36 17
-46 78 -50 35 -2 42 1 42 16 0 10 0 121 1 247 0 223 -1 230 -22 252 -13 13
-26 24 -31 24 -4 0 -9 -109 -10 -242z"/>
<path d="M4098 978 c2 -166 6 -216 17 -227 11 -12 17 -12 29 -1 14 10 16 44
16 210 l0 198 -25 16 c-13 9 -28 16 -32 16 -4 0 -7 -96 -5 -212z"/>
<path d="M4638 950 c3 -214 1 -241 -13 -246 -20 -8 -37 8 -40 38 -1 13 -3 77
-4 143 -2 145 -14 134 -31 -30 -13 -131 -21 -155 -50 -155 -29 0 -26 -14 -56
248 -10 87 -24 37 -26 -100 -3 -142 -3 -143 -25 -141 -13 2 -23 -2 -23 -8 0
-35 101 -67 113 -36 4 10 6 10 6 0 1 -9 19 -13 56 -13 44 0 55 3 55 16 0 15 2
15 25 0 13 -9 36 -16 50 -16 l25 0 0 249 0 250 -26 20 c-15 12 -29 21 -33 21
-3 0 -5 -108 -3 -240z"/>
<path d="M2800 944 c0 -175 3 -238 13 -247 28 -28 68 -47 97 -47 24 0 30 4 30
21 l0 21 36 -21 c19 -12 47 -21 62 -21 l27 0 3 104 c3 97 2 106 -19 127 l-22
22 21 18 c19 15 22 27 22 98 0 66 -3 81 -15 81 -9 0 -18 12 -22 30 -5 25 -27
50 -46 50 -2 0 -2 -46 1 -102 4 -90 3 -103 -13 -114 -17 -13 -17 -15 -3 -31
21 -23 29 -224 10 -231 -31 -10 -42 19 -42 107 0 90 -8 111 -42 111 -16 0 -18
-11 -18 -104 0 -58 -4 -108 -10 -111 -5 -3 -19 -1 -30 5 -20 11 -21 18 -18
241 2 178 0 229 -9 229 -10 0 -13 -54 -13 -236z"/>
<path d="M2687 1139 c11 -23 14 -50 11 -100 -6 -80 -23 -106 -72 -111 l-31 -3
-3 -105 c-1 -58 -7 -109 -11 -113 -5 -5 -18 -6 -30 -2 -20 6 -21 13 -24 223
l-3 217 -1 -238 c-1 -144 2 -235 8 -232 5 4 19 -1 31 -9 12 -9 37 -16 55 -16
l33 0 0 109 c0 88 3 110 15 115 8 3 15 1 15 -5 0 -23 45 -3 59 26 16 32 27
150 17 188 -6 25 -60 87 -75 87 -5 0 -2 -14 6 -31z"/>
<path d="M570 815 c0 -3 34 -54 76 -113 61 -86 74 -112 69 -132 -13 -55 -10
-63 35 -97 25 -19 74 -56 110 -83 385 -292 524 -390 552 -390 23 0 63 24 157
95 69 52 150 111 179 132 29 21 58 43 65 49 7 5 77 59 157 118 80 60 148 112
153 116 4 3 0 23 -8 44 -15 36 -15 38 15 79 79 111 130 187 125 187 -4 0 -61
-46 -127 -102 -67 -57 -126 -106 -131 -109 -5 -4 -1 -18 9 -34 12 -18 15 -31
8 -40 -5 -8 -121 -97 -259 -199 -137 -102 -255 -189 -260 -193 -6 -4 -27 -21
-48 -36 l-37 -28 -95 73 c-52 40 -128 98 -170 128 -42 30 -112 82 -155 115
-90 69 -168 127 -182 136 -6 4 -3 20 7 39 14 27 15 35 3 45 -36 35 -239 205
-243 205 -3 0 -5 -2 -5 -5z"/>
</g>
</svg>
